<svg width="48" height="48" viewBox="0 0 48 48" fill="none" xmlns="http://www.w3.org/2000/svg">
<path fill-rule="evenodd" clip-rule="evenodd" d="M24 2C11.845 2 2 11.845 2 24C2 33.735 8.2975 41.9574 17.0425 44.8724C18.1425 45.065 18.555 44.405 18.555 43.8274C18.555 43.6459 18.5517 43.3184 18.5473 42.891V42.8909V42.8908V42.8907V42.8906V42.8904L18.5473 42.89C18.5392 42.0871 18.5275 40.9319 18.5275 39.73C13 40.7474 11.57 38.3824 11.13 37.145C10.8825 36.5124 9.81 34.56 8.875 34.0374C8.28587 33.7219 7.50357 33.0521 7.99376 32.7425H7.35563C7.29665 32.7425 7.24005 32.7193 7.19812 32.6778C7.15619 32.6363 7.13231 32.58 7.13167 32.521V31.3477H8.72374V32.5835C8.76343 32.5818 8.80467 32.5806 8.8475 32.58C8.94077 32.5785 9.03261 32.5818 9.12296 32.5895V31.3477H10.715V32.521C10.7144 32.58 10.6905 32.6363 10.6486 32.6778C10.6066 32.7193 10.55 32.7425 10.4911 32.7425H9.83064C11.0447 33.1665 11.9005 34.3078 12.23 34.835C14.21 38.1624 17.3725 37.2274 18.6375 36.65C18.83 35.22 19.4075 34.2574 20.04 33.7074C15.145 33.1574 10.03 31.26 10.03 22.845C10.03 20.4524 10.8825 18.4725 12.285 16.9325C12.065 16.3825 11.295 14.1275 12.505 11.1025C12.505 11.1025 14.3475 10.525 18.555 13.3575C18.7026 13.316 18.851 13.2762 19 13.2382C19.0052 12.0094 19.642 11.3248 20.3102 10.6065C20.6079 10.2864 20.9119 9.95965 21.169 9.57503C21.4748 9.11819 21.5854 8.58648 21.6967 8.05211C21.8131 7.49299 21.93 6.93097 22.2717 6.44876C23.5077 4.70418 26.7266 4.65892 28.479 5.6563C28.7091 5.78743 28.9706 5.70632 29.2321 5.62521C29.3842 5.57805 29.5362 5.5309 29.6821 5.52545C29.8291 5.52051 29.9768 5.53533 30.1262 5.59211C30.6458 5.78303 31 6.30229 31 6.86845C31 7.61566 30.3912 8.39908 29.6845 8.2238C28.4 7.90426 28.2114 7.32791 28.0732 6.90577C27.9509 6.53213 27.8682 6.2793 27.1001 6.43231C26.1153 6.62781 26.6674 7.86228 27.0487 8.71484L27.0487 8.71488C27.1248 8.88508 27.1941 9.04005 27.243 9.1685C27.3039 9.32938 27.3764 9.5086 27.453 9.69776C27.6777 10.2527 27.9371 10.8932 28.0365 11.4068C28.1039 11.7513 28.2207 12.0761 28.3266 12.3707L28.3266 12.3707L28.3266 12.3707L28.3266 12.3708L28.3266 12.3708C28.4247 12.6435 28.5135 12.8904 28.5452 13.1032C28.8853 13.1791 29.2221 13.2639 29.555 13.3575C33.7626 10.4975 35.605 11.1025 35.605 11.1025C36.815 14.1275 36.045 16.3825 35.825 16.9325C37.2276 18.4725 38.08 20.425 38.08 22.845C38.08 31.2874 32.9376 33.1574 28.0426 33.7074C28.84 34.395 29.5276 35.715 29.5276 37.7774C29.5276 39.7351 29.5154 41.4371 29.5072 42.5758L29.5072 42.5766L29.5072 42.5772L29.5072 42.5776L29.5072 42.5791L29.5072 42.5822C29.5031 43.1519 29.5 43.5798 29.5 43.8274C29.5 44.405 29.9126 45.0924 31.0126 44.8724C39.7026 41.9574 46 33.7074 46 24C46 11.845 36.155 2 24 2ZM10.4472 29.356H10.8952C11.0169 29.356 11.1143 29.4996 11.1143 29.6749V30.6316C11.1143 30.8069 11.0169 30.9505 10.8952 30.9505H9.12296V29.356H8.72372V30.9505H6.95151C6.8298 30.9505 6.73242 30.8069 6.73242 30.6316V29.6749C6.73242 29.4996 6.8298 29.356 6.95151 29.356H7.39943C7.35355 29.2628 7.32942 29.1604 7.32884 29.0566C7.32948 28.8717 7.40338 28.6946 7.53433 28.5641C7.66528 28.4336 7.84262 28.3603 8.0275 28.3604C8.22063 28.3695 8.40723 28.4331 8.56575 28.5438C8.72427 28.6545 8.84824 28.8078 8.92334 28.986C8.99844 28.8078 9.12241 28.6545 9.28093 28.5438C9.43945 28.4331 9.62605 28.3695 9.81918 28.3604C10.0041 28.3603 10.1814 28.4336 10.3124 28.5641C10.4433 28.6946 10.5172 28.8717 10.5178 29.0566C10.5173 29.1604 10.4931 29.2628 10.4472 29.356ZM7.9049 29.3415C7.94432 29.3548 7.98607 29.3597 8.0275 29.356H8.65556C8.56062 29.1101 8.36831 28.7596 8.0275 28.7596C7.98607 28.7558 7.94432 28.7608 7.9049 28.774C7.86549 28.7873 7.82927 28.8087 7.79856 28.8367C7.76785 28.8648 7.74333 28.8989 7.72655 28.937C7.70977 28.9751 7.7011 29.0162 7.7011 29.0578C7.7011 29.0994 7.70977 29.1405 7.72655 29.1786C7.74333 29.2166 7.76785 29.2508 7.79856 29.2789C7.82927 29.3069 7.86549 29.3283 7.9049 29.3415ZM9.19112 29.356H9.81918C9.86061 29.3597 9.90236 29.3548 9.94178 29.3415C9.98119 29.3283 10.0174 29.3069 10.0481 29.2789C10.0788 29.2508 10.1034 29.2166 10.1201 29.1786C10.1369 29.1405 10.1456 29.0994 10.1456 29.0578C10.1456 29.0162 10.1369 28.9751 10.1201 28.937C10.1034 28.8989 10.0788 28.8648 10.0481 28.8367C10.0174 28.8087 9.98119 28.7873 9.94178 28.774C9.90236 28.7608 9.86061 28.7558 9.81918 28.7596C9.47837 28.7596 9.28606 29.1126 9.19112 29.356Z" fill="black"/>
</svg>
